<?xml version="1.0" encoding="UTF-8" standalone="no"?>
<!DOCTYPE svg PUBLIC "-//W3C//DTD SVG 1.1//EN" "http://www.w3.org/Graphics/SVG/1.1/DTD/svg11.dtd">
<svg width="100%" height="100%" viewBox="0 0 7209 4031" version="1.1" xmlns="http://www.w3.org/2000/svg" xmlns:xlink="http://www.w3.org/1999/xlink" xml:space="preserve" xmlns:serif="http://www.serif.com/" style="fill-rule:evenodd;clip-rule:evenodd;stroke-linejoin:round;stroke-miterlimit:2;">
    <g transform="matrix(1,0,0,1,-15858,-4.54747e-13)">
        <g id="New" transform="matrix(9.95086e-17,-1.6251,2.05495,1.2583e-16,15858,4030.76)">
            <rect x="0" y="0" width="2480.32" height="3507.87" style="fill:none;"/>
            <g transform="matrix(2.06964e-16,2.67295,-3.37997,1.63671e-16,6542.33,-4365.46)">
                <g transform="matrix(1,0,0,1,1046.28,742.538)">
                    <path d="M1777.26,688.091C1780.56,689.092 1781.53,689.121 1784.44,691.064C1788.79,693.969 1791.88,698.605 1792.9,703.733C1793.16,705.008 1793.16,706.322 1793.29,707.616L1793.29,944.711C1792.95,948.141 1793.11,949.098 1791.77,952.329C1789.77,957.16 1785.83,961.102 1781,963.103C1777.77,964.441 1776.81,964.28 1773.38,964.618L712.827,964.618C709.397,964.28 708.44,964.441 705.209,963.103C700.378,961.102 696.436,957.16 694.435,952.329C693.097,949.098 693.258,948.141 692.92,944.711L692.92,707.616C693.258,704.187 693.097,703.229 694.435,699.998C696.436,695.168 700.378,691.225 705.209,689.224C708.44,687.886 709.397,688.047 712.827,687.709L1773.38,687.709C1774.67,687.836 1775.97,687.964 1777.26,688.091ZM712.827,707.616L712.827,944.711L1773.38,944.711L1773.38,707.616L712.827,707.616Z" style="fill:white;"/>
                </g>
                <g transform="matrix(1,0,0,1,875.194,936.469)">
                    <g transform="matrix(200,0,0,200,921.46,703.326)">
                        <path d="M0.063,0L0.063,-0.711L0.313,-0.711C0.399,-0.711 0.464,-0.694 0.509,-0.661C0.553,-0.628 0.576,-0.58 0.576,-0.516C0.576,-0.481 0.567,-0.451 0.549,-0.424C0.531,-0.398 0.506,-0.378 0.474,-0.366C0.511,-0.357 0.539,-0.338 0.56,-0.311C0.581,-0.283 0.592,-0.249 0.592,-0.209C0.592,-0.141 0.57,-0.089 0.526,-0.054C0.483,-0.019 0.421,-0.001 0.34,0L0.063,0ZM0.21,-0.31L0.21,-0.118L0.335,-0.118C0.37,-0.118 0.397,-0.126 0.416,-0.142C0.436,-0.159 0.445,-0.181 0.445,-0.21C0.445,-0.276 0.412,-0.309 0.344,-0.31L0.21,-0.31ZM0.21,-0.413L0.318,-0.413C0.392,-0.414 0.429,-0.444 0.429,-0.501C0.429,-0.534 0.42,-0.557 0.401,-0.571C0.382,-0.585 0.353,-0.592 0.313,-0.592L0.21,-0.592L0.21,-0.413Z" style="fill:white;fill-rule:nonzero;"/>
                    </g>
                    <g transform="matrix(200,0,0,200,1049.1,703.326)">
                        <path d="M0.327,-0.26L0.21,-0.26L0.21,0L0.063,0L0.063,-0.711L0.328,-0.711C0.412,-0.711 0.476,-0.692 0.522,-0.655C0.568,-0.617 0.59,-0.564 0.59,-0.496C0.59,-0.448 0.58,-0.407 0.559,-0.375C0.538,-0.342 0.506,-0.317 0.463,-0.297L0.617,-0.007L0.617,0L0.46,0L0.327,-0.26ZM0.21,-0.379L0.328,-0.379C0.365,-0.379 0.393,-0.388 0.414,-0.407C0.434,-0.426 0.444,-0.451 0.444,-0.484C0.444,-0.518 0.434,-0.544 0.415,-0.563C0.396,-0.583 0.367,-0.592 0.328,-0.592L0.21,-0.592L0.21,-0.379Z" style="fill:white;fill-rule:nonzero;"/>
                    </g>
                    <g transform="matrix(200,0,0,200,1176.73,703.326)">
                        <path d="M0.465,-0.146L0.208,-0.146L0.159,0L0.003,0L0.268,-0.711L0.404,-0.711L0.67,0L0.514,0L0.465,-0.146ZM0.248,-0.265L0.425,-0.265L0.336,-0.531L0.248,-0.265Z" style="fill:white;fill-rule:nonzero;"/>
                    </g>
                    <g transform="matrix(200,0,0,200,1311.3,703.326)">
                        <path d="M0.642,0L0.495,0L0.21,-0.468L0.21,0L0.063,0L0.063,-0.711L0.21,-0.711L0.496,-0.242L0.496,-0.711L0.642,-0.711L0.642,0Z" style="fill:white;fill-rule:nonzero;"/>
                    </g>
                    <g transform="matrix(200,0,0,200,1452.51,703.326)">
                        <path d="M0.063,0L0.063,-0.711L0.282,-0.711C0.345,-0.711 0.401,-0.697 0.45,-0.669C0.499,-0.641 0.538,-0.601 0.565,-0.549C0.593,-0.497 0.607,-0.438 0.607,-0.372L0.607,-0.339C0.607,-0.273 0.593,-0.214 0.566,-0.163C0.539,-0.111 0.501,-0.071 0.451,-0.043C0.402,-0.015 0.346,0 0.284,0L0.063,0ZM0.21,-0.592L0.21,-0.118L0.281,-0.118C0.338,-0.118 0.382,-0.136 0.412,-0.174C0.442,-0.211 0.458,-0.265 0.458,-0.334L0.458,-0.372C0.458,-0.444 0.444,-0.499 0.414,-0.536C0.384,-0.574 0.34,-0.592 0.282,-0.592L0.21,-0.592Z" style="fill:white;fill-rule:nonzero;"/>
                    </g>
                    <g transform="matrix(200,0,0,200,1731.91,703.326)">
                        <path d="M0.255,-0.711L0.438,-0.195L0.619,-0.711L0.812,-0.711L0.812,0L0.665,0L0.665,-0.194L0.679,-0.53L0.487,0L0.387,0L0.195,-0.529L0.21,-0.194L0.21,0L0.063,0L0.063,-0.711L0.255,-0.711Z" style="fill:white;fill-rule:nonzero;"/>
                    </g>
                </g>
                <g transform="matrix(1,0,0,1,930.507,28.0086)">
                    <g>
                        <path d="M1551.87,1518.14C1559.44,1499.29 1577.72,1484.61 1599.27,1483.48C1600.26,1483.43 1601.26,1483.41 1602.26,1483.41C1611.42,1483.47 1622.62,1485.31 1622.57,1493.8C1622.54,1499.68 1616.01,1503.27 1610.13,1501.91C1593.95,1498.28 1575.81,1507.11 1568.9,1522.48L1571.89,1520.76C1572.58,1520.38 1572.79,1520.31 1573.2,1520.17C1574.04,1519.89 1574.91,1519.78 1575.8,1519.8C1581.8,1520.17 1585.46,1529.35 1579.07,1533.19L1558.85,1544.86C1556.23,1546.31 1552.9,1545.64 1550.64,1543.74C1549.98,1543.2 1549.4,1542.54 1548.95,1541.79L1537.28,1521.57C1534.85,1517.18 1537.95,1510.83 1543.57,1510.8C1543.65,1510.81 1543.73,1510.81 1543.81,1510.81C1544.59,1510.86 1544.81,1510.91 1545.24,1511.02C1547.12,1511.49 1548.54,1512.45 1549.71,1514.39L1551.87,1518.14ZM1558,1527.57C1558.12,1527.04 1558.24,1526.52 1558.38,1526C1558.42,1525.85 1558.76,1524.33 1558.08,1527.22C1558.05,1527.34 1558.03,1527.45 1558,1527.57L1558,1527.59L1557.99,1527.62L1557.99,1527.62L1557.99,1527.63C1557.93,1527.9 1557.87,1528.17 1557.82,1528.44L1557.82,1528.44C1557.87,1528.17 1557.93,1527.9 1557.99,1527.63L1557.99,1527.62L1558,1527.57ZM1558.69,1524.85C1560.02,1520.29 1562.04,1515.99 1564.66,1512.08C1562,1516.05 1560.1,1519.98 1558.69,1524.85C1558.39,1525.91 1558.57,1525.28 1558.69,1524.85ZM1584.33,1495.85C1585.58,1495.32 1587.78,1494.51 1586.37,1495.04C1585.68,1495.29 1585,1495.56 1584.33,1495.85C1584.28,1495.87 1584.24,1495.89 1584.19,1495.91C1583.58,1496.17 1582.98,1496.45 1582.38,1496.74C1575.93,1499.87 1570.24,1504.57 1565.92,1510.31L1565.91,1510.33L1565.88,1510.36L1565.85,1510.41L1565.83,1510.43C1565.65,1510.68 1565.47,1510.92 1565.29,1511.18C1565.19,1511.31 1565.1,1511.44 1565,1511.58C1565.27,1511.19 1565.55,1510.81 1565.83,1510.43L1565.88,1510.36L1565.92,1510.31C1570.68,1503.99 1577.04,1498.98 1584.33,1495.85ZM1592.03,1493.34L1592.1,1493.32C1593.3,1493.05 1593.01,1493.1 1592.03,1493.34C1590.53,1493.68 1589.05,1494.1 1587.59,1494.6C1587.44,1494.65 1587.28,1494.71 1587.13,1494.76C1588.86,1494.16 1590.9,1493.62 1592.03,1493.34ZM1612.08,1493.34C1612.98,1493.54 1615.96,1494.19 1611.8,1493.27C1610.98,1493.09 1611.64,1493.24 1612.08,1493.34ZM1610.39,1492.98C1606.87,1492.33 1603.29,1492.09 1599.72,1492.27C1603.13,1492.1 1606.54,1492.3 1609.88,1492.89C1611.55,1493.19 1610.84,1493.07 1610.39,1492.98ZM1595.95,1492.62C1596.84,1492.5 1597.73,1492.41 1598.62,1492.34C1600.92,1492.16 1598.47,1492.28 1595.95,1492.62L1595.88,1492.63L1595.85,1492.64C1595.77,1492.65 1595.69,1492.66 1595.61,1492.67C1595.49,1492.69 1594.77,1492.79 1595.88,1492.63L1595.85,1492.64L1595.95,1492.62Z" style="fill:white;"/>
                    </g>
                    <g transform="matrix(-0.998975,0.0452543,-0.0452543,-0.998975,3270.84,2995.91)">
                        <path d="M1551.87,1518.14C1559.44,1499.29 1577.72,1484.61 1599.27,1483.48C1600.26,1483.43 1601.26,1483.41 1602.26,1483.41C1611.42,1483.47 1622.62,1485.31 1622.57,1493.8C1622.54,1499.68 1616.01,1503.27 1610.13,1501.91C1593.95,1498.28 1575.81,1507.11 1568.9,1522.48L1571.89,1520.76C1572.58,1520.38 1572.79,1520.31 1573.2,1520.17C1574.04,1519.89 1574.91,1519.78 1575.8,1519.8C1581.8,1520.17 1585.46,1529.35 1579.07,1533.19L1558.85,1544.86C1556.23,1546.31 1552.9,1545.64 1550.64,1543.74C1549.98,1543.2 1549.4,1542.54 1548.95,1541.79L1537.28,1521.57C1534.85,1517.18 1537.95,1510.83 1543.57,1510.8C1543.65,1510.81 1543.73,1510.81 1543.81,1510.81C1544.59,1510.86 1544.81,1510.91 1545.24,1511.02C1547.12,1511.49 1548.54,1512.45 1549.71,1514.39L1551.87,1518.14ZM1558,1527.57C1558.12,1527.04 1558.24,1526.52 1558.38,1526C1558.42,1525.85 1558.76,1524.33 1558.08,1527.22C1558.05,1527.34 1558.03,1527.45 1558,1527.57L1558,1527.59L1557.99,1527.62L1557.99,1527.62L1557.99,1527.63C1557.93,1527.9 1557.87,1528.17 1557.82,1528.44L1557.82,1528.44C1557.87,1528.17 1557.93,1527.9 1557.99,1527.63L1557.99,1527.62L1558,1527.57ZM1558.69,1524.85C1560.02,1520.29 1562.04,1515.99 1564.66,1512.08C1562,1516.05 1560.1,1519.98 1558.69,1524.85C1558.39,1525.91 1558.57,1525.28 1558.69,1524.85ZM1584.33,1495.85C1585.58,1495.32 1587.78,1494.51 1586.37,1495.04C1585.68,1495.29 1585,1495.56 1584.33,1495.85C1584.28,1495.87 1584.24,1495.89 1584.19,1495.91C1583.58,1496.17 1582.98,1496.45 1582.38,1496.74C1575.93,1499.87 1570.24,1504.57 1565.92,1510.31L1565.91,1510.33L1565.88,1510.36L1565.85,1510.41L1565.83,1510.43C1565.65,1510.68 1565.47,1510.92 1565.29,1511.18C1565.19,1511.31 1565.1,1511.44 1565,1511.58C1565.27,1511.19 1565.55,1510.81 1565.83,1510.43L1565.88,1510.36L1565.92,1510.31C1570.68,1503.99 1577.04,1498.98 1584.33,1495.85ZM1592.03,1493.34L1592.1,1493.32C1593.3,1493.05 1593.01,1493.1 1592.03,1493.34C1590.53,1493.68 1589.05,1494.1 1587.59,1494.6C1587.44,1494.65 1587.28,1494.71 1587.13,1494.76C1588.86,1494.16 1590.9,1493.62 1592.03,1493.34ZM1612.08,1493.34C1612.98,1493.54 1615.96,1494.19 1611.8,1493.27C1610.98,1493.09 1611.64,1493.24 1612.08,1493.34ZM1610.39,1492.98C1606.87,1492.33 1603.29,1492.09 1599.72,1492.27C1603.13,1492.1 1606.54,1492.3 1609.88,1492.89C1611.55,1493.19 1610.84,1493.07 1610.39,1492.98ZM1595.95,1492.62C1596.84,1492.5 1597.73,1492.41 1598.62,1492.34C1600.92,1492.16 1598.47,1492.28 1595.95,1492.62L1595.88,1492.63L1595.85,1492.64C1595.77,1492.65 1595.69,1492.66 1595.61,1492.67C1595.49,1492.69 1594.77,1492.79 1595.88,1492.63L1595.85,1492.64L1595.95,1492.62Z" style="fill:white;"/>
                    </g>
                </g>
            </g>
        </g>
    </g>
</svg>
