<?xml version="1.0" encoding="UTF-8" standalone="no"?><!DOCTYPE svg PUBLIC "-//W3C//DTD SVG 1.1//EN" "http://www.w3.org/Graphics/SVG/1.1/DTD/svg11.dtd"><svg width="100%" height="100%" viewBox="0 0 1731 968" version="1.1" xmlns="http://www.w3.org/2000/svg" xmlns:xlink="http://www.w3.org/1999/xlink" xml:space="preserve" xmlns:serif="http://www.serif.com/" style="fill-rule:evenodd;clip-rule:evenodd;stroke-linecap:round;stroke-linejoin:round;stroke-miterlimit:1.5;"><path id="Logo-BLACK" serif:id="Logo BLACK" d="M0,0l0,967.381l1730.05,0l0,-967.381l-1730.05,0Z" style="fill:none;"/><path d="M333.574,339.31l-215.783,215.783l126.178,126.178l216.697,-216.697l-10.234,-115.944l-116.858,-9.32Z" style="fill:none;stroke:#000;stroke-width:19.11px;"/><g><path d="M199.192,544.296l55.574,55.574" style="fill:none;stroke:#000;stroke-width:19.11px;"/><path d="M216.569,526.919l32.151,32.151" style="fill:none;stroke:#000;stroke-width:19.11px;"/><path d="M233.946,509.542l6.386,6.386" style="fill:none;stroke:#000;stroke-width:19.11px;"/><path d="M181.814,561.674l46.701,46.7" style="fill:none;stroke:#000;stroke-width:19.11px;"/></g><path d="M402.072,396.99c12.631,12.631 12.631,33.14 0,45.771c-12.631,12.631 -33.14,12.631 -45.771,0c-12.631,-12.631 -12.631,-33.14 0,-45.771c12.631,-12.631 33.14,-12.631 45.771,0Z" style="fill:none;stroke:#000;stroke-width:19.11px;"/><path d="M372.311,404.336c3.078,5.2 6.78,10.005 11.024,14.307c28.725,29.112 75.682,29.427 104.795,0.702c6.463,-6.377 11.699,-13.886 15.447,-22.155c-3.748,8.269 -8.984,15.778 -15.447,22.155c-29.113,28.725 -76.07,28.41 -104.795,-0.702c-4.244,-4.302 -7.946,-9.107 -11.024,-14.307Z" style="fill:none;stroke:#000;stroke-width:19.11px;"/><path d="M499.857,328.857c-3.078,-5.201 -6.78,-10.005 -11.025,-14.307c-28.744,-29.132 -75.662,-29.447 -104.795,-0.702c29.133,-28.745 76.051,-28.43 104.795,0.702c4.245,4.302 7.947,9.106 11.025,14.307Z" style="fill:none;stroke:#000;stroke-width:19.11px;"/><g><path d="M681.499,486.43c-3.134,-2.742 -6.66,-4.897 -10.578,-6.464c1.763,-1.175 3.526,-2.35 5.093,-3.917c5.681,-5.093 9.795,-13.92 9.599,-23.535c-0.196,-11.185 -3.722,-21.186 -11.949,-28.825c-8.227,-7.834 -17.638,-10.576 -29.802,-10.576l-55.875,0l0,141.157l58.622,0c17.065,0 25.495,-2.742 33.918,-10.969c8.227,-7.835 11.557,-19.209 11.557,-31.177c0.196,-9.614 -3.922,-19.621 -10.585,-25.694Zm-37.833,-51.184c5.297,0 9.809,1.373 13.144,4.709c3.335,3.336 4.709,7.849 4.709,12.166c0,4.121 -0.785,8.242 -3.532,11.381c-3.335,3.729 -8.043,5.887 -14.321,5.887l-31.781,0l0,-34.143l31.781,0Zm18.831,90.808c-4.316,4.121 -9.024,5.887 -15.694,5.887l-34.918,0l0,-40.419l35.507,0c4.904,0 11.378,1.374 15.89,6.279c3.531,3.924 4.904,9.221 4.904,14.323c0,5.494 -1.765,10.202 -5.689,13.93Z" style="fill-rule:nonzero;"/><path d="M794.465,554.27l26.643,0l-26.055,-53.527c16.063,-7.247 23.898,-22.729 23.898,-41.759c0,-23.346 -11.557,-41.367 -36.06,-45.088c-3.727,-0.588 -8.435,-0.783 -11.181,-0.783l-58.424,0l0,141.157l23.505,0l0,-49.218l33.742,0l23.932,49.218Zm-57.674,-119.024l33.938,0c2.55,0 6.081,0.196 8.827,0.98c11.77,2.943 15.497,13.734 15.497,22.758c0,9.025 -3.727,20.011 -15.497,22.954c-2.746,0.785 -6.277,0.981 -8.827,0.981l-33.938,0l0,-47.673Z" style="fill-rule:nonzero;"/><path d="M928.372,554.27l24.31,0l-44.503,-141.157l-34.7,0l-44.503,141.157l24.31,0l9.606,-30.59l55.678,0l9.802,30.59Zm-58.422,-52.723l20.585,-65.517l20.977,65.517l-41.562,0Z" style="fill-rule:nonzero;"/><path d="M994.252,413.113l-23.898,0l0,141.157l23.898,0l0,-99.595l65.517,99.595l23.898,0l0,-141.157l-23.898,0l0,99.398l-65.517,-99.398Z" style="fill-rule:nonzero;"/><path d="M1225.24,483.691c0,35.485 -18.232,65.677 -51.951,69.795c-5.098,0.588 -10.783,0.784 -17.252,0.784l-44.894,0l0,-141.157l44.894,0c6.469,0 12.154,0.195 17.252,0.783c33.719,4.117 51.951,34.309 51.951,69.795Zm-24.903,0c0,-22.742 -8.429,-42.74 -28.618,-47.249c-3.528,-0.784 -9.8,-0.98 -15.681,-0.98l-20.777,0l0,96.458l20.777,0c5.881,0 12.153,-0.196 15.681,-0.981c20.189,-4.509 28.618,-24.506 28.618,-47.248Z" style="fill-rule:nonzero;"/><path d="M1310.16,557.211c41.582,0 66.853,-29.586 67.441,-73.52c-0.784,-43.934 -25.271,-73.324 -67.441,-73.52c-41.975,-0.196 -67.638,30.763 -67.638,73.52c0,42.757 25.859,73.52 67.638,73.52Zm0,-22.329c-28.637,-0.196 -42.563,-20.202 -42.76,-51.191c-0.391,-30.009 14.515,-51.582 42.76,-51.19c28.244,0.195 42.562,20.397 42.562,51.19c0,30.204 -14.122,51.583 -42.562,51.191Z" style="fill-rule:nonzero;"/><path d="M1539.37,413.113l-21.153,0l-48.837,99.986l-49.032,-99.986l-21.154,0l0,141.157l22.133,0l0,-90.381l43.346,90.381l9.415,0l43.149,-90.577l0,90.577l22.133,0l0,-141.157Z" style="fill-rule:nonzero;"/></g><path d="M413.442,318.197l-33.127,-1.582l8.536,-30.505" style="fill:none;stroke:#000;stroke-width:19.11px;"/><path d="M480.775,395.9l30.74,-12.447l5.035,31.274" style="fill:none;stroke:#000;stroke-width:19.11px;"/></svg>